<svg width="254" height="48" viewBox="0 0 254 48" fill="none" xmlns="http://www.w3.org/2000/svg">
<path d="M15.012 37.576C13.092 37.576 11.316 37.24 9.684 36.568C8.052 35.872 6.624 34.912 5.4 33.688C4.2 32.44 3.264 31 2.592 29.368C1.944 27.736 1.62 25.984 1.62 24.112C1.62 22.24 1.956 20.5 2.628 18.892C3.3 17.26 4.236 15.82 5.436 14.572C6.636 13.324 8.052 12.364 9.684 11.692C11.316 10.996 13.092 10.648 15.012 10.648C16.932 10.648 18.696 10.996 20.304 11.692C21.936 12.364 23.352 13.324 24.552 14.572C25.776 15.796 26.724 17.224 27.396 18.856C28.068 20.488 28.404 22.24 28.404 24.112C28.404 25.984 28.068 27.736 27.396 29.368C26.724 31 25.788 32.44 24.588 33.688C23.388 34.912 21.972 35.872 20.34 36.568C18.708 37.24 16.932 37.576 15.012 37.576ZM22.716 39.196L15.48 28.396L18.756 26.128L26.028 37.036L22.716 39.196ZM15.012 33.4C16.692 33.4 18.204 33.016 19.548 32.248C20.916 31.456 21.996 30.364 22.788 28.972C23.604 27.556 24.012 25.936 24.012 24.112C24.012 22.264 23.604 20.644 22.788 19.252C21.972 17.86 20.892 16.78 19.548 16.012C18.204 15.22 16.692 14.824 15.012 14.824C13.356 14.824 11.844 15.22 10.476 16.012C9.132 16.78 8.052 17.86 7.236 19.252C6.444 20.644 6.048 22.264 6.048 24.112C6.048 25.936 6.444 27.556 7.236 28.972C8.052 30.364 9.132 31.456 10.476 32.248C11.844 33.016 13.356 33.4 15.012 33.4ZM38.9154 37.576C36.6594 37.576 34.9674 36.892 33.8394 35.524C32.7114 34.156 32.1474 32.284 32.1474 29.908V18.64H36.4314V29.368C36.4314 30.76 36.7674 31.816 37.4394 32.536C38.1114 33.256 38.9634 33.616 39.9954 33.616C40.9554 33.616 41.7834 33.376 42.4794 32.896C43.1754 32.392 43.7034 31.732 44.0634 30.916C44.4234 30.1 44.6034 29.212 44.6034 28.252V18.64H48.9234V37H44.8554V34.588H44.6034C44.2674 35.164 43.7994 35.68 43.1994 36.136C42.6234 36.592 41.9754 36.94 41.2554 37.18C40.5354 37.444 39.7554 37.576 38.9154 37.576ZM59.1443 37.576C57.8243 37.576 56.6603 37.324 55.6523 36.82C54.6443 36.292 53.8523 35.56 53.2763 34.624C52.7003 33.688 52.4123 32.62 52.4123 31.42C52.4123 30.124 52.7483 29.02 53.4203 28.108C54.0923 27.172 54.9923 26.464 56.1203 25.984C57.2483 25.48 58.5083 25.228 59.9003 25.228C60.6443 25.228 61.3283 25.276 61.9523 25.372C62.6003 25.468 63.1643 25.588 63.6443 25.732C64.1483 25.876 64.5443 26.02 64.8323 26.164V25.3C64.8323 24.196 64.4243 23.308 63.6083 22.636C62.8163 21.94 61.7603 21.592 60.4403 21.592C59.5283 21.592 58.6643 21.796 57.8483 22.204C57.0323 22.612 56.3603 23.164 55.8323 23.86L52.9883 21.628C53.5643 20.884 54.2363 20.248 55.0043 19.72C55.7723 19.168 56.6363 18.76 57.5963 18.496C58.5563 18.208 59.5523 18.064 60.5843 18.064C63.3203 18.064 65.4083 18.724 66.8483 20.044C68.3123 21.34 69.0443 23.2 69.0443 25.624V37H64.8323V34.948H64.5803C64.2683 35.404 63.8483 35.836 63.3203 36.244C62.7923 36.628 62.1803 36.94 61.4843 37.18C60.7883 37.444 60.0083 37.576 59.1443 37.576ZM60.0443 34.156C61.0283 34.156 61.8803 33.94 62.6003 33.508C63.3203 33.052 63.8723 32.464 64.2563 31.744C64.6403 31 64.8323 30.22 64.8323 29.404C64.3043 29.092 63.6803 28.852 62.9603 28.684C62.2643 28.516 61.5323 28.432 60.7643 28.432C59.2763 28.432 58.2323 28.72 57.6323 29.296C57.0323 29.872 56.7323 30.58 56.7323 31.42C56.7323 32.212 57.0203 32.872 57.5963 33.4C58.1723 33.904 58.9883 34.156 60.0443 34.156ZM73.3188 37V18.64H77.3508V21.052H77.6028C78.1308 20.164 78.9108 19.444 79.9428 18.892C80.9748 18.34 82.0908 18.064 83.2908 18.064C85.5468 18.064 87.2388 18.748 88.3668 20.116C89.5188 21.46 90.0948 23.248 90.0948 25.48V37H85.7748V26.056C85.7748 24.712 85.4388 23.716 84.7668 23.068C84.0948 22.396 83.1948 22.06 82.0668 22.06C81.1788 22.06 80.3988 22.312 79.7268 22.816C79.0548 23.296 78.5268 23.944 78.1428 24.76C77.7828 25.552 77.6028 26.428 77.6028 27.388V37H73.3188ZM92.5523 22.348V18.64H95.9363V22.348H92.5523ZM101.588 37.288C99.7883 37.288 98.3603 36.772 97.3043 35.74C96.2723 34.684 95.7563 33.232 95.7563 31.384V13.456H100.04V30.556C100.04 31.492 100.232 32.176 100.616 32.608C101 33.04 101.6 33.256 102.416 33.256C102.8 33.256 103.16 33.208 103.496 33.112C103.832 32.992 104.228 32.788 104.684 32.5V36.712C104.18 36.904 103.676 37.048 103.172 37.144C102.668 37.24 102.14 37.288 101.588 37.288ZM99.8963 22.348V18.64H104.576V22.348H99.8963ZM115.029 37.576C112.773 37.576 111.081 36.892 109.953 35.524C108.825 34.156 108.261 32.284 108.261 29.908V18.64H112.545V29.368C112.545 30.76 112.881 31.816 113.553 32.536C114.225 33.256 115.077 33.616 116.109 33.616C117.069 33.616 117.897 33.376 118.593 32.896C119.289 32.392 119.817 31.732 120.177 30.916C120.537 30.1 120.717 29.212 120.717 28.252V18.64H125.037V37H120.969V34.588H120.717C120.381 35.164 119.913 35.68 119.313 36.136C118.737 36.592 118.089 36.94 117.369 37.18C116.649 37.444 115.869 37.576 115.029 37.576ZM129.534 37V18.64H133.566V21.052H133.818C134.202 20.476 134.67 19.96 135.222 19.504C135.774 19.048 136.41 18.7 137.13 18.46C137.85 18.196 138.618 18.064 139.434 18.064C140.778 18.064 141.93 18.388 142.89 19.036C143.85 19.66 144.534 20.44 144.942 21.376C145.494 20.464 146.286 19.684 147.318 19.036C148.35 18.388 149.622 18.064 151.134 18.064C153.27 18.064 154.866 18.724 155.922 20.044C156.978 21.34 157.506 23.056 157.506 25.192V37H153.258V25.948C153.258 24.628 152.958 23.656 152.358 23.032C151.758 22.384 150.942 22.06 149.91 22.06C149.07 22.06 148.326 22.3 147.678 22.78C147.054 23.236 146.562 23.872 146.202 24.688C145.866 25.48 145.698 26.404 145.698 27.46V37H141.378V25.984C141.378 24.64 141.078 23.656 140.478 23.032C139.878 22.384 139.026 22.06 137.922 22.06C137.106 22.06 136.386 22.3 135.762 22.78C135.138 23.236 134.658 23.872 134.322 24.688C133.986 25.504 133.818 26.44 133.818 27.496V37H129.534Z" fill="#1A73E8"/>
<path d="M188.999 34.6421C188.847 34.6421 188.696 34.6012 188.564 34.524L180.273 29.7103C180.006 29.5569 179.839 29.2671 179.839 28.9551C179.839 28.6443 180.005 28.3545 180.273 28.1988L182.235 27.0595L180.273 25.919C180.006 25.7655 179.839 25.4757 179.839 25.1638C179.839 24.8529 180.005 24.5631 180.273 24.4074L182.235 23.2681L180.273 22.1288C180.005 21.9731 179.839 21.6832 179.839 21.3724C179.839 21.0604 180.006 20.7707 180.274 20.6167L188.565 15.8019C188.697 15.7252 188.847 15.6854 188.999 15.6854C189.151 15.6854 189.302 15.7252 189.433 15.8013L197.727 20.6172C197.994 20.7707 198.161 21.0605 198.161 21.3724C198.161 21.6833 197.995 21.9731 197.727 22.1288L195.764 23.2681L197.727 24.4075C197.995 24.5632 198.161 24.853 198.161 25.1638C198.161 25.4758 197.994 25.7656 197.726 25.9196L195.764 27.0589L197.727 28.1988C197.995 28.3545 198.161 28.6443 198.161 28.9551C198.161 29.2671 197.994 29.5569 197.726 29.7109L189.433 34.5245C189.302 34.6012 189.152 34.6421 188.999 34.6421ZM188.999 32.7618L195.557 28.9545L194.028 28.0669L189.433 30.7343C189.3 30.811 189.15 30.8508 188.999 30.8508C188.849 30.8508 188.699 30.811 188.567 30.7354L183.972 28.0669L182.443 28.9551L188.999 32.7618ZM188.999 28.9705L195.557 25.1638L194.028 24.2762L189.433 26.9429C189.3 27.0197 189.15 27.0594 188.999 27.0594C188.849 27.0594 188.699 27.0196 188.567 26.9441L183.972 24.2761L182.443 25.1637L188.999 28.9705ZM188.999 25.1791L195.557 21.3724L188.999 17.5658L182.443 21.3724L188.999 25.1791Z" fill="#1A73E8"/>
<path d="M189.011 48.0001C181.859 48.0001 176.04 37.6052 176.04 24.8276C176.04 12.05 181.859 1.65503 189.011 1.65503C196.163 1.65503 201.982 12.05 201.982 24.8276C201.982 37.6052 196.163 48.0001 189.011 48.0001ZM189.011 2.81882C182.497 2.81882 177.198 12.6921 177.198 24.8276C177.198 36.963 182.497 46.8363 189.011 46.8363C195.525 46.8363 200.824 36.963 200.824 24.8276C200.824 12.6921 195.525 2.81882 189.011 2.81882Z" fill="#1A73E8"/>
<path d="M198.775 40.9999C193.938 40.9999 188.121 39.3696 182.526 36.1215C177.244 33.0558 172.929 29.0252 170.375 24.7708C167.755 20.41 167.286 16.3152 169.051 13.241C172.627 7.01362 184.49 7.14546 195.497 13.5337C206.502 19.9225 212.547 30.1867 208.971 36.4141C207.213 39.4753 203.452 40.9999 198.775 40.9999ZM179.194 9.77135C174.969 9.77135 171.609 11.113 170.054 13.8229C168.508 16.513 168.975 20.1879 171.365 24.1696C173.821 28.2581 177.99 32.1449 183.104 35.1135C193.557 41.1818 204.713 41.5045 207.969 35.8323C211.225 30.1606 205.371 20.6095 194.918 14.5418C189.459 11.3732 183.81 9.77135 179.194 9.77135Z" fill="#1A73E8"/>
<path d="M179.21 41.0306C174.363 41.0306 170.765 39.3997 169.051 36.4141C167.286 33.3399 167.755 29.2451 170.375 24.8844C172.929 20.63 177.244 16.5994 182.526 13.5337C193.531 7.14603 205.395 7.01305 208.971 13.241C212.547 19.4685 206.502 29.7327 195.497 36.1215C190.215 39.1866 184.586 40.9289 179.644 41.026C179.498 41.0289 179.353 41.0306 179.21 41.0306ZM198.828 9.77134C194.211 9.77134 188.563 11.3732 183.104 14.5418C177.99 17.5103 173.821 21.3971 171.365 25.4856C168.975 29.4673 168.508 33.1422 170.054 35.8323C171.598 38.5224 174.966 39.9345 179.622 39.8628C184.371 39.7691 189.803 38.0825 194.918 35.1134C205.371 29.0457 211.225 19.4946 207.969 13.8229C206.413 11.1135 203.052 9.77134 198.828 9.77134Z" fill="#1A73E8"/>
<path d="M189.014 0C187.848 0 186.903 0.950106 186.903 2.12211C186.903 3.29419 187.848 4.24429 189.014 4.24429C190.179 4.24429 191.124 3.29419 191.124 2.12211C191.124 0.950106 190.179 0 189.014 0Z" fill="#1A73E8"/>
<path d="M206.758 22.7206C205.593 22.7206 204.648 23.6707 204.648 24.8427C204.648 26.0148 205.593 26.9649 206.758 26.9649C207.924 26.9649 208.869 26.0148 208.869 24.8427C208.869 23.6707 207.924 22.7206 206.758 22.7206Z" fill="#1A73E8"/>
<path d="M176.595 22.6962C175.429 22.6962 174.484 23.6463 174.484 24.8183C174.484 25.9904 175.429 26.9405 176.595 26.9405C177.761 26.9405 178.706 25.9904 178.706 24.8183C178.706 23.6463 177.761 22.6962 176.595 22.6962Z" fill="#1A73E8"/>
<path d="M183.2 42.5919C182.034 42.5919 181.089 43.542 181.089 44.714C181.089 45.8861 182.034 46.8362 183.2 46.8362C184.366 46.8362 185.311 45.8861 185.311 44.714C185.311 43.542 184.366 42.5919 183.2 42.5919Z" fill="#1A73E8"/>
<path d="M194.927 12.0392C193.761 12.0392 192.816 12.9893 192.816 14.1613C192.816 15.3334 193.761 16.2835 194.927 16.2835C196.092 16.2835 197.038 15.3334 197.038 14.1613C197.038 12.9893 196.092 12.0392 194.927 12.0392Z" fill="#1A73E8"/>
<path d="M218.54 37L228.224 11.224H233.264L242.984 37H238.124L231.824 19.36L230.888 16.336H230.636L229.664 19.36L223.4 37H218.54ZM230.456 30.592V26.56H236.432L237.908 30.592H230.456ZM223.436 30.592L224.876 26.56H230.456V30.592H223.436ZM246.403 37V11.224H250.831V37H246.403Z" fill="#1A73E8"/>
</svg>
